<?xml version="1.0" standalone="no"?>
<svg viewBox="0 0 200 200" xmlns="http://www.w3.org/2000/svg">
  <path fill="#F1C21B" d="M42.7,-63.3C53.8,-59.4,60,-44.8,68.2,-30.2C76.3,-15.6,86.4,-0.9,84.5,12.1C82.6,25.1,68.8,36.4,57,48.6C45.2,60.7,35.3,73.7,22.3,79C9.2,84.2,-7,81.6,-21.1,75.7C-35.2,69.8,-47.3,60.6,-59.7,49.8C-72.2,38.9,-85.1,26.5,-89.4,11.5C-93.7,-3.6,-89.4,-21.2,-78.5,-32C-67.6,-42.8,-50.1,-46.8,-35.9,-49.3C-21.8,-51.8,-10.9,-52.9,2.5,-56.7C15.8,-60.6,31.7,-67.3,42.7,-63.3Z" transform="translate(100 100)" />
</svg>
