<svg width="1440" height="584" viewBox="0 0 1440 584" fill="none" xmlns="http://www.w3.org/2000/svg">
<g clip-path="url(#clip0_1_2)">
<path d="M1439.83 683.538H0V338.502H1439.83V683.538Z" fill="#111111"/>
<path d="M0 453.34L19.9977 445.749C39.9953 438.216 79.9907 423.035 119.986 421.424C159.981 419.814 199.977 431.66 239.972 429.475C279.967 427.29 319.963 410.958 359.958 406.473C399.953 401.987 439.949 409.233 479.944 418.722C519.94 428.21 559.935 439.941 599.93 446.037C639.926 452.19 679.921 452.765 719.916 454.318C759.912 455.813 799.907 458.343 839.902 450.752C879.898 443.162 919.893 425.565 959.888 417.974C999.884 410.383 1039.88 412.913 1079.87 420.849C1119.87 428.785 1159.87 442.242 1199.86 436.779C1239.86 431.315 1279.85 406.933 1319.85 392.671C1359.84 378.41 1399.84 374.154 1419.83 372.084L1439.83 369.956V309H1419.83C1399.84 309 1359.84 309 1319.85 309C1279.85 309 1239.86 309 1199.86 309C1159.87 309 1119.87 309 1079.87 309C1039.88 309 999.884 309 959.888 309C919.893 309 879.898 309 839.902 309C799.907 309 759.912 309 719.916 309C679.921 309 639.926 309 599.93 309C559.935 309 519.94 309 479.944 309C439.949 309 399.953 309 359.958 309C319.963 309 279.967 309 239.972 309C199.977 309 159.981 309 119.986 309C79.9907 309 39.9953 309 19.9977 309H0V453.34Z" fill="#C62368"/>
</g>
<g clip-path="url(#clip1_1_2)">
<path d="M1439.83 -316H0V381.187H1439.83V-316Z" fill="#222222"/>
<path d="M0 34.9175L19.9977 45.7239C39.9953 56.6465 79.9907 78.2593 119.986 76.4001C159.981 74.4248 199.977 48.8612 239.972 46.7697C279.967 44.5619 319.963 65.9423 359.958 73.6113C399.953 81.3966 439.949 75.5867 479.944 79.8861C519.94 84.0692 559.935 98.4777 599.93 104.869C639.926 111.259 679.921 109.633 719.916 105.45C759.912 101.15 799.907 94.1784 839.902 83.1396C879.898 72.1008 919.893 56.9951 959.888 57.2275C999.884 57.3437 1039.88 72.9142 1079.87 84.3016C1119.87 95.689 1159.87 103.126 1199.86 91.622C1239.86 80.2346 1279.85 50.0232 1319.85 50.6042C1359.84 51.1852 1399.84 82.5586 1419.83 98.2453L1439.83 113.932V382.349H1419.83C1399.84 382.349 1359.84 382.349 1319.85 382.349C1279.85 382.349 1239.86 382.349 1199.86 382.349C1159.87 382.349 1119.87 382.349 1079.87 382.349C1039.88 382.349 999.884 382.349 959.888 382.349C919.893 382.349 879.898 382.349 839.902 382.349C799.907 382.349 759.912 382.349 719.916 382.349C679.921 382.349 639.926 382.349 599.93 382.349C559.935 382.349 519.94 382.349 479.944 382.349C439.949 382.349 399.953 382.349 359.958 382.349C319.963 382.349 279.967 382.349 239.972 382.349C199.977 382.349 159.981 382.349 119.986 382.349C79.9907 382.349 39.9953 382.349 19.9977 382.349H0V34.9175Z" fill="#FA7268"/>
<path d="M0 139.496L19.9977 141.238C39.9953 142.981 79.9907 146.467 119.986 149.605C159.981 152.626 199.977 155.415 239.972 152.277C279.967 149.14 319.963 140.309 359.958 140.425C399.953 140.657 439.949 149.953 479.944 157.158C519.94 164.246 559.935 169.358 599.93 167.615C639.926 165.872 679.921 157.274 719.916 153.091C759.912 148.791 799.907 148.791 839.902 144.957C879.898 141.006 919.893 133.337 959.888 132.756C999.884 132.175 1039.88 138.682 1079.87 144.724C1119.87 150.767 1159.87 156.112 1199.86 158.32C1239.86 160.411 1279.85 159.249 1319.85 153.439C1359.84 147.629 1399.84 137.172 1419.83 131.943L1439.83 126.714V382.349H1419.83C1399.84 382.349 1359.84 382.349 1319.85 382.349C1279.85 382.349 1239.86 382.349 1199.86 382.349C1159.87 382.349 1119.87 382.349 1079.87 382.349C1039.88 382.349 999.884 382.349 959.888 382.349C919.893 382.349 879.898 382.349 839.902 382.349C799.907 382.349 759.912 382.349 719.916 382.349C679.921 382.349 639.926 382.349 599.93 382.349C559.935 382.349 519.94 382.349 479.944 382.349C439.949 382.349 399.953 382.349 359.958 382.349C319.963 382.349 279.967 382.349 239.972 382.349C199.977 382.349 159.981 382.349 119.986 382.349C79.9907 382.349 39.9953 382.349 19.9977 382.349H0V139.496Z" fill="#EB5967"/>
<path d="M0 211.538L19.9977 207.471C39.9953 203.404 79.9907 195.27 119.986 189.809C159.981 184.464 199.977 181.675 239.972 187.95C279.967 194.108 319.963 209.214 359.958 216.186C399.953 223.158 439.949 221.996 479.944 220.834C519.94 219.672 559.935 218.51 599.93 212.119C639.926 205.728 679.921 194.108 719.916 194.108C759.912 194.108 799.907 205.728 839.902 214.095C879.898 222.345 919.893 227.457 959.888 223.971C999.884 220.485 1039.88 208.401 1079.87 200.848C1119.87 193.295 1159.87 190.274 1199.86 201.313C1239.86 212.352 1279.85 237.45 1319.85 240.82C1359.84 244.074 1399.84 225.482 1419.83 216.186L1439.83 206.89V382.349H1419.83C1399.84 382.349 1359.84 382.349 1319.85 382.349C1279.85 382.349 1239.86 382.349 1199.86 382.349C1159.87 382.349 1119.87 382.349 1079.87 382.349C1039.88 382.349 999.884 382.349 959.888 382.349C919.893 382.349 879.898 382.349 839.902 382.349C799.907 382.349 759.912 382.349 719.916 382.349C679.921 382.349 639.926 382.349 599.93 382.349C559.935 382.349 519.94 382.349 479.944 382.349C439.949 382.349 399.953 382.349 359.958 382.349C319.963 382.349 279.967 382.349 239.972 382.349C199.977 382.349 159.981 382.349 119.986 382.349C79.9907 382.349 39.9953 382.349 19.9977 382.349H0V211.538Z" fill="#DA3F67"/>
<path d="M0 292.877L19.9977 287.88C39.9953 282.768 79.9907 272.774 119.986 270.218C159.981 267.662 199.977 272.775 239.972 273.936C279.967 275.098 319.963 272.31 359.958 274.634C399.953 276.958 439.949 284.394 479.944 283.813C519.94 283.232 559.935 274.634 599.93 271.613C639.926 268.475 679.921 270.799 719.916 273.123C759.912 275.447 799.907 277.771 839.902 276.841C879.898 275.796 919.893 271.613 959.888 273.704C999.884 275.796 1039.88 284.394 1079.87 292.644C1119.87 301.011 1159.87 309.144 1199.86 307.401C1239.86 305.658 1279.85 294.039 1319.85 293.109C1359.84 292.063 1399.84 301.824 1419.83 306.588L1439.83 311.468V382.349H1419.83C1399.84 382.349 1359.84 382.349 1319.85 382.349C1279.85 382.349 1239.86 382.349 1199.86 382.349C1159.87 382.349 1119.87 382.349 1079.87 382.349C1039.88 382.349 999.884 382.349 959.888 382.349C919.893 382.349 879.898 382.349 839.902 382.349C799.907 382.349 759.912 382.349 719.916 382.349C679.921 382.349 639.926 382.349 599.93 382.349C559.935 382.349 519.94 382.349 479.944 382.349C439.949 382.349 399.953 382.349 359.958 382.349C319.963 382.349 279.967 382.349 239.972 382.349C199.977 382.349 159.981 382.349 119.986 382.349C79.9907 382.349 39.9953 382.349 19.9977 382.349H0V292.877Z" fill="#C62368"/>
</g>
<defs>
<clipPath id="clip0_1_2">
<rect width="1439.83" height="201.594" fill="white" transform="matrix(1 0 0 -1 0 584)"/>
</clipPath>
<clipPath id="clip1_1_2">
<rect width="1439.83" height="407.345" fill="white"/>
</clipPath>
</defs>
</svg>
