<svg width="1445" height="665" viewBox="0 0 1445 665" fill="none" xmlns="http://www.w3.org/2000/svg">
<g clip-path="url(#clip0_3_13)">
<path d="M-0.537996 -97.0927L1440.77 -104.515L1442.6 250.537L1.29052 257.96L-0.537996 -97.0927Z" fill="#111111"/>
<path d="M1441.83 102.599L1421.86 110.513C1401.88 118.368 1361.92 134.196 1321.89 136.06C1281.87 137.923 1241.77 125.939 1201.74 128.394C1161.72 130.848 1121.77 147.86 1081.76 152.682C1041.74 157.504 1001.67 150.254 961.582 140.697C921.496 131.139 881.397 119.273 841.329 113.207C801.26 107.081 761.221 106.696 721.176 105.304C681.132 103.972 641.082 101.574 601.086 109.591C561.09 117.609 521.147 135.923 481.151 143.94C441.155 151.957 401.105 149.56 361.027 141.6C320.949 133.64 280.841 119.999 240.834 125.827C200.827 131.655 160.92 156.951 120.959 171.833C80.9982 186.715 40.9845 191.3 20.9774 193.533L0.970509 195.826L1.29355 258.552L21.3117 258.449C41.3298 258.346 81.3661 258.139 121.402 257.933C161.439 257.727 201.475 257.521 241.511 257.315C281.547 257.108 321.584 256.902 361.62 256.696C401.656 256.49 441.692 256.284 481.729 256.077C521.765 255.871 561.801 255.665 601.837 255.459C641.874 255.253 681.91 255.047 721.946 254.84C761.983 254.634 802.019 254.428 842.055 254.222C882.091 254.016 922.128 253.809 962.164 253.603C1002.2 253.397 1042.24 253.191 1082.27 252.985C1122.31 252.778 1162.35 252.572 1202.38 252.366C1242.42 252.16 1282.45 251.954 1322.49 251.748C1362.53 251.541 1402.56 251.335 1422.58 251.232L1442.6 251.129L1441.83 102.599Z" fill="#C62368"/>
</g>
<g clip-path="url(#clip1_3_13)">
<path d="M4.75876 931.462L1446.06 924.039L1442.37 206.613L1.06402 214.036L4.75876 931.462Z" fill="#222222"/>
<path d="M1444.2 562.935L1424.13 551.918C1404.05 540.781 1363.9 518.747 1323.88 520.866C1283.85 523.105 1243.95 549.617 1203.92 551.976C1163.9 554.454 1123.75 532.659 1083.67 524.973C1043.6 517.168 1003.59 523.353 963.531 519.135C923.473 515.037 883.36 500.416 843.29 494.046C803.22 487.676 763.192 489.556 723.178 494.066C683.164 498.697 643.165 506.077 603.187 517.643C563.21 529.208 523.253 544.959 483.216 544.926C443.179 545.012 403.06 529.196 362.964 517.684C322.867 506.172 282.791 498.726 242.816 510.77C202.84 522.694 162.964 553.988 122.925 553.597C82.8854 553.205 42.6828 521.127 22.5816 505.088L2.48031 489.049L1.05783 212.84L21.076 212.737C41.0941 212.634 81.1304 212.428 121.167 212.222C161.203 212.015 201.239 211.809 241.275 211.603C281.312 211.397 321.348 211.191 361.384 210.984C401.42 210.778 441.457 210.572 481.493 210.366C521.529 210.16 561.565 209.954 601.602 209.747C641.638 209.541 681.674 209.335 721.711 209.129C761.747 208.923 801.783 208.716 841.819 208.51C881.856 208.304 921.892 208.098 961.928 207.892C1001.96 207.685 1042 207.479 1082.04 207.273C1122.07 207.067 1162.11 206.861 1202.15 206.655C1242.18 206.448 1282.22 206.242 1322.25 206.036C1362.29 205.83 1402.33 205.624 1422.35 205.521L1442.36 205.417L1444.2 562.935Z" fill="#FA7268"/>
<path d="M1443.65 455.321L1423.62 453.631C1403.6 451.94 1363.54 448.559 1323.49 445.537C1283.44 442.634 1243.38 439.971 1203.36 443.405C1163.35 446.84 1123.36 456.134 1083.32 456.22C1043.28 456.187 1003.2 446.828 963.122 439.621C923.048 432.533 882.984 427.478 842.957 429.478C802.93 431.477 762.94 440.532 722.926 445.043C682.912 449.673 642.876 449.879 602.86 454.031C562.845 458.303 522.849 466.401 482.816 467.205C442.783 468.009 402.712 461.519 362.644 455.507C322.575 449.496 282.511 444.202 242.463 442.136C202.415 440.19 162.385 441.592 122.38 447.777C82.3743 453.961 42.3934 464.929 22.403 470.413L2.41259 475.897L1.05785 212.84L21.076 212.737C41.0941 212.634 81.1304 212.428 121.167 212.222C161.203 212.016 201.239 211.81 241.275 211.603C281.312 211.397 321.348 211.191 361.384 210.985C401.42 210.779 441.457 210.572 481.493 210.366C521.529 210.16 561.566 209.954 601.602 209.748C641.638 209.541 681.674 209.335 721.711 209.129C761.747 208.923 801.783 208.717 841.819 208.511C881.856 208.304 921.892 208.098 961.928 207.892C1001.96 207.686 1042 207.48 1082.04 207.273C1122.07 207.067 1162.11 206.861 1202.15 206.655C1242.18 206.449 1282.22 206.242 1322.25 206.036C1362.29 205.83 1402.33 205.624 1422.35 205.521L1442.36 205.418L1443.65 455.321Z" fill="#EB5967"/>
<path d="M1443.27 381.187L1423.27 385.475C1403.28 389.763 1363.28 398.339 1323.27 404.165C1283.27 409.872 1243.25 412.948 1203.18 406.697C1163.11 400.566 1122.99 385.228 1082.92 378.26C1042.84 371.292 1002.81 372.694 962.784 374.095C922.754 375.497 882.724 376.899 842.721 383.682C802.719 390.464 762.744 402.628 722.708 402.834C682.672 403.04 642.574 391.289 602.493 382.886C562.413 374.603 522.35 369.548 482.332 373.341C442.315 377.135 402.342 389.776 362.346 397.754C322.35 405.733 282.33 409.048 242.235 397.895C202.14 386.742 161.971 361.12 121.917 357.859C81.8632 354.717 41.9254 374.055 21.9565 383.724L1.98768 393.392L1.05784 212.84L21.076 212.737C41.0941 212.634 81.1304 212.428 121.167 212.222C161.203 212.015 201.239 211.809 241.275 211.603C281.312 211.397 321.348 211.191 361.384 210.985C401.42 210.778 441.457 210.572 481.493 210.366C521.529 210.16 561.566 209.954 601.602 209.747C641.638 209.541 681.674 209.335 721.711 209.129C761.747 208.923 801.783 208.716 841.819 208.51C881.856 208.304 921.892 208.098 961.928 207.892C1001.96 207.686 1042 207.479 1082.04 207.273C1122.07 207.067 1162.11 206.861 1202.15 206.655C1242.18 206.448 1282.22 206.242 1322.25 206.036C1362.29 205.83 1402.33 205.624 1422.35 205.521L1442.36 205.418L1443.27 381.187Z" fill="#DA3F67"/>
<path d="M1442.84 297.487L1422.85 302.732C1402.85 308.096 1362.87 318.586 1322.85 321.422C1282.83 324.259 1242.76 319.204 1202.72 318.215C1162.68 317.225 1122.66 320.301 1082.61 318.116C1042.56 315.93 1002.48 308.484 962.45 309.288C922.417 310.092 882.426 319.147 842.406 322.462C802.387 325.896 762.338 323.711 722.289 321.526C682.241 319.341 642.192 317.155 602.161 318.318C562.13 319.6 522.116 324.111 482.069 322.165C442.021 320.219 401.94 311.577 361.86 303.294C321.779 294.891 281.7 286.727 241.673 288.727C201.646 290.726 161.671 302.89 121.64 304.052C81.6088 305.335 41.5208 295.497 21.4775 290.698L1.43347 285.779L1.05784 212.84L21.076 212.737C41.0941 212.634 81.1304 212.428 121.167 212.222C161.203 212.016 201.239 211.809 241.275 211.603C281.312 211.397 321.348 211.191 361.384 210.985C401.42 210.779 441.457 210.572 481.493 210.366C521.529 210.16 561.566 209.954 601.602 209.748C641.638 209.541 681.674 209.335 721.711 209.129C761.747 208.923 801.783 208.717 841.819 208.51C881.856 208.304 921.892 208.098 961.928 207.892C1001.96 207.686 1042 207.48 1082.04 207.273C1122.07 207.067 1162.11 206.861 1202.15 206.655C1242.18 206.449 1282.22 206.242 1322.25 206.036C1362.29 205.83 1402.33 205.624 1422.35 205.521L1442.36 205.418L1442.84 297.487Z" fill="#C62368"/>
</g>
<defs>
<clipPath id="clip0_3_13">
<rect width="1441.32" height="226.797" fill="white" transform="matrix(-0.999987 0.00514993 0.00514993 0.999987 1441.31 0.00012207)"/>
</clipPath>
<clipPath id="clip1_3_13">
<rect width="1441.32" height="458.27" fill="white" transform="translate(1444.69 657.001) rotate(179.705)"/>
</clipPath>
</defs>
</svg>
